P2
80 60
255
 105  254  212  222  37  122  68  33  238  131  130  80  153  177  174  133  76  200  240  244  3  123  46  193  225  172  26  28  131  77  1  148  176  129  94  33  11  201  136  58  3  124  6  229  55  252  216  146  144  191  224  51  225  103  226  255  150  240  246  26  237  12  66  30  148  211  145  176  30  235  26  238  126  94  6  202  4  162  129  31  169  31  8  159  55  38  110  136  203  9  112  101  132  178  48  12  180  244  186  93  182  128  209  103  184  105  177  210  33  213  246  172  231  124  254  18  38  115  27  108  125  211  154  90  59  142  71  208  59  42  80  59  76  183  132  34  135  216  217  247  103  121  192  134  135  57  58  211  26  140  239  226  149  249  107  111  238  219  132  67  188  170  117  138  227  189  144  40  43  28  134  211  219  39  59  139  187  87  183  164  85  185  83  161  246  78  113  208  249  223  25  138  83  132  183  225  174  107  165  125  125  80  201  93  100  107  116  47  222  126  216  11  182  34  255  108  202  102  193  62  12  77  112  56  255  198  19  153  246  57  207  220  93  246  202  230  196  71  61  189  253  62  134  228  184  219  37  237  19  108  46  41  71  228  95  179  69  232  58  127  61  111  191  161  96  235  32  83  203  239  142  225  139  161  152  37  192  56  218  196  116  64  183  12  137  79  164  218  10  115  16  187  172  145  89  8  189  164  95  157  207  206  27  102  103  234  112  242  160  92  193  226  71  199  57  10  13  72  160  232  181  235  109  254  175  20  123  153  128  160  236  137  100  195  48  63  23  163  222  230  94  10  245  21  226  138  102  203  58  243  79  152  137  242  37  239  229  75  7  224  243  38  16  168  77  161  201  199  68  229  72  158  55  177  52  227  46  139  241  152  192  131  134  137  71  184  67  213  64  153  49  96  77  58  70  144  183  242  241  74  125  222  2  135  237  195  71  155  110  94  5  179  231  24  107  226  11  155  145  135  110  223  3  200  163  214  213  91  174  246  86  198  52  154  251  236  67  63  176  169  85  131  246  253  43  226  45  56  106  23  89  148  125  49  47  105  21  99  155  99  212  226  42  239  249  12  151  60  203  135  145  45  75  249  50  198  16  124  3  179  209  233  100  179  196  193  18  229  60  114  34  58  83  98  55  119  251  85  215  159  236  105  214  204  2  30  116  244  55  145  100  109  34  120  65  107  7  17  3  41  215  175  243  236  25  86  60  141  198  77  183  186  34  121  163  197  68  192  54  88  183  186  127  28  145  127  195  5  224  101  220  158  186  34  38  122  76  216  138  165  67  76  210  193  138  151  249  73  254  121  102  78  178  159  249  243  200  245  198  178  96  114  195  157  0  158  57  145  255  120  217  123  240  50  69  193  168  199  166  8  143  72  82  154  42  89  230  199  63  53  49  252  253  76  53  39  114  129  27  143  41  189  101  87  102  174  210  42  105  60  107  13  89  101  226  126  24  12  1  118  220  99  54  113  176  155  81  211  59  167  132  184  220  228  72  146  20  198  61  160  110  172  103  205  140  95  3  30  197  207  42  133  213  26  216  140  98  7  99  9  214  165  135  181  186  227  22  90  57  161  246  6  144  223  194  125  54  112  95  25  92  201  30  10  199  80  169  232  142  235  170  113  55  65  97  79  174  170  179  182  43  144  245  197  166  127  152  166  144  22  75  100  194  143  112  207  27  129  209  165  41  68  103  171  65  40  140  112  222  157  114  201  207  82  222  97  141  38  34  249  144  237  253  104  173  199  199  180  162  20  75  25  200  224  38  63  108  233  20  87  229  92  106  90  86  161  103  61  107  180  31  102  176  197  251  94  249  9  85  84  113  6  107  185  5  208  71  214  188  45  39  28  70  189  24  149  66  248  242  174  58  217  130  108  3  252  208  233  65  252  146  237  3  210  160  75  41  27  199  171  231  44  231  104  38  18  47  14  159  155  122  64  137  234  89  174  130  21  250  247  175  186  57  126  148  151  116  73  13  167  81  66  201  106  127  114  63  164  188  11  128  223  170  76  133  237  249  203  151  145  33  216  26  108  125  49  194  131  208  151  68  111  125  87  16  173  113  61  24  117  122  1  196  181  74  185  66  239  102  110  238  7  137  159  88  46  135  251  104  123  127  104  129  242  103  25  41  51  42  17  122  66  111  95  13  111  216  17  58  141  1  165  130  126  192  187  211  46  48  130  191  1  238  111  60  227  111  155  112  45  217  58  40  195  197  141  2  201  111  202  27  202  110  116  237  0  147  211  99  12  251  67  189  93  48  71  152  24  72  133  161  122  119  3  211  39  228  51  204  51  236  210  201  29  193  167  245  121  65  229  98  122  77  242  175  8  63  35  138  190  66  16  128  151  35  243  83  219  207  189  215  86  71  91  164  194  232  237  89  203  237  159  1  29  235  35  28  80  127  184  63  195  212  51  202  223  177  72  27  132  187  31  204  226  65  232  15  72  86  37  226  38  78  0  227  171  177  43  224  68  130  108  195  140  101  25  103  1  121  181  239  68  234  214  208  142  59  156  56  102  233  244  174  165  164  46  236  79  143  69  139  217  5  190  232  228  86  219  209  181  109  94  222  54  200  53  8  104  97  190  29  6  25  159  195  30  233  151  96  73  193  247  1  86  57  245  104  41  81  105  202  186  108  17  113  50  63  223  77  88  8  143  209  151  98  22  216  67  65  75  49  200  73  180  87  248  63  11  80  193  205  203  68  9  208  199  43  204  90  145  54  235  80  80  2  160  233  79  102  245  179  154  155  18  174  197  239  222  240  221  164  198  220  140  146  81  68  93  54  147  24  39  75  92  9  146  197  141  111  216  247  221  20  238  246  225  238  104  218  47  219  145  70  249  51  112  215  171  213  146  96  146  135  219  140  215  209  189  146  191  114  172  176  69  59  234  209  3  193  55  116  130  135  72  27  242  118  108  178  153  68  67  75  18  36  208  42  10  124  227  149  224  158  69  39  49  119  195  66  57  12  205  69  135  251  5  116  143  195  216  47  54  151  230  234  151  110  209  135  227  177  199  44  111  115  243  104  182  62  222  132  92  161  166  26  243  120  222  176  165  121  224  241  182  240  70  51  36  197  86  118  162  206  43  178  146  52  112  75  145  31  174  199  183  51  73  104  160  129  102  38  240  70  63  165  24  154  130  22  182  130  205  182  25  11  95  132  39  11  178  254  3  244  204  72  172  153  168  233  251  29  90  75  67  109  44  175  35  91  72  179  11  84  22  178  60  221  6  71  20  121  1  212  229  89  89  169  146  62  199  120  174  86  139  22  249  85  150  21  154  14  80  210  156  213  80  127  225  150  44  110  213  253  75  84  5  87  147  131  215  227  158  52  130  254  13  166  166  81  143  178  184  106  23  151  226  106  215  27  207  71  137  255  80  253  184  134  184  92  184  67  92  152  62  218  140  177  164  44  5  168  10  161  231  30  226  121  211  89  138  233  4  230  20  158  225  247  128  132  185  105  30  58  29  241  54  99  148  20  106  14  41  227  200  235  182  28  240  122  163  39  80  114  59  173  203  205  176  225  251  68  60  137  146  246  8  136  55  230  188  94  198  78  238  86  142  121  21  51  1  153  198  48  221  98  185  187  194  120  58  222  250  170  74  127  241  216  37  176  248  180  107  19  140  49  170  232  157  61  203  215  11  143  46  126  180  198  80  251  110  182  39  31  87  213  87  185  10  233  242  118  89  182  114  10  115  36  28  34  96  165  47  61  54  190  205  236  108  138  171  66  49  211  88  20  207  172  24  134  177  245  4  213  202  11  120  175  187  228  153  117  102  71  30  168  30  107  85  119  55  57  212  179  38  150  56  210  15  174  163  130  37  216  232  52  236  231  158  134  32  225  133  196  147  205  56  253  74  52  53  223  159  248  0  99  47  197  75  192  14  255  191  77  166  31  67  34  122  180  106  235  252  232  250  52  149  42  84  148  236  199  223  123  149  201  144  53  64  237  255  126  158  185  128  126  84  214  49  72  102  104  239  20  191  9  190  46  152  0  56  75  216  214  67  92  171  4  97  5  235  102  188  20  66  117  32  207  74  163  232  175  70  46  53  88  145  185  112  175  58  84  151  217  198  79  147  156  158  25  81  4  44  159  55  89  66  30  20  150  251  25  149  47  239  59  224  172  70  62  251  211  194  123  65  94  204  210  66  3  25  141  5  90  120  158  252  155  255  254  104  116  205  81  127  50  98  242  27  102  133  79  68  153  144  71  163  56  24  101  65  218  186  57  247  13  5  198  68  144  134  10  86  72  248  192  102  170  235  65  189  66  55  1  28  243  212  117  120  20  241  112  134  8  83  197  183  33  90  229  4  122  103  116  28  97  159  75  35  73  134  61  180  163  50  232  110  16  129  93  201  64  239  235  199  110  115  107  120  247  23  114  60  147  197  118  23  240  47  158  136  2  130  3  172  20  39  129  178  226  130  224  29  60  121  221  122  125  39  243  218  244  8  21  134  187  177  99  27  188  247  197  130  189  108  212  247  11  204  212  156  237  47  150  249  144  129  12  25  18  253  240  237  97  105  114  235  91  182  242  8  16  12  254  119  85  40  117  181  236  74  94  11  77  0  58  146  220  128  244  161  148  79  64  123  141  121  42  237  150  180  207  169  242  91  210  232  208  97  206  63  74  231  55  59  5  128  92  202  39  179  0  78  71  191  203  146  48  67  34  222  175  241  105  196  149  15  107  81  217  36  197  203  107  245  116  53  133  133  77  101  121  152  0  162  238  254  126  77  14  170  13  106  183  111  255  120  6  39  43  71  126  201  95  86  9  253  212  126  118  159  77  131  164  167  218  161  159  214  140  215  215  183  44  108  115  124  239  213  36  85  126  221  38  23  29  208  83  42  160  8  197  212  252  88  95  82  137  81  223  99  237  186  74  37  91  250  138  141  67  176  208  24  246  63  205  168  154  125  50  250  214  101  235  138  3  33  146  62  75  126  1  163  25  99  154  43  83  186  234  76  129  191  94  27  158  149  127  138  109  162  201  34  140  50  124  197  7  100  236  193  28  181  184  50  7  233  12  139  48  111  123  240  186  242  76  208  145  35  16  41  64  111  57  194  151  202  233  150  216  96  177  161  108  136  248  81  112  26  221  221  58  200  0  210  213  8  44  76  206  170  24  110  52  34  162  206  114  55  148  207  217  201  211  9  18  14  12  44  71  193  96  28  235  117  72  60  31  104  223  99  84  5  46  38  128  114  101  185  101  97  18  250  181  193  59  204  133  161  244  92  120  45  102  111  48  115  147  131  27  60  1  5  114  16  96  168  73  56  169  101  233  127  186  138  73  15  103  223  84  226  252  171  237  249  219  60  248  159  64  87  141  199  160  218  97  190  238  179  198  85  25  75  80  200  110  84  212  152  47  20  216  244  152  26  194  24  170  109  242  132  184  92  203  251  40  30  24  132  71  154  158  223  233  234  170  95  166  61  102  20  227  25  44  2  124  35  204  25  225  255  152  109  147  249  73  88  158  189  100  241  61  162  129  130  24  116  237  137  183  53  140  12  150  175  100  250  251  65  83  178  17  210  117  179  7  111  104  253  9  177  62  148  136  169  12  45  243  181  90  26  98  100  64  13  178  46  4  145  157  176  16  134  240  175  169  80  145  46  135  4  44  157  97  24  118  12  231  252  210  72  33  37  155  164  21  37  205  59  179  131  248  116  109  48  62  152  178  174  224  104  77  25  113  166  31  168  238  198  29  90  36  249  77  240  148  52  171  150  182  199  51  16  210  155  2  137  229  83  110  184  253  227  56  84  35  151  122  140  168  218  195  111  168  123  230  29  9  171  85  209  204  73  154  191  112  196  86  49  92  55  104  40  181  20  111  81  219  54  118  10  162  244  207  197  244  78  87  35  198  44  14  177  144  61  196  96  60  225  215  87  72  57  86  25  73  107  203  132  50  228  180  136  226  78  58  51  53  235  22  246  118  219  163  238  113  225  12  70  148  61  31  194  96  52  231  216  81  237  42  215  183  118  71  235  107  212  94  2  53  54  138  255  170  147  36  216  232  43  62  208  239  191  113  24  143  124  197  243  233  7  250  127  29  87  198  56  121  137  146  88  152  36  50  69  38  214  145  80  195  13  213  31  46  110  113  104  85  165  218  136  29  159  8  22  179  221  169  113  252  41  12  222  99  171  7  227  105  7  202  253  185  237  107  33  60  54  44  241  106  144  219  218  146  110  143  241  13  237  218  186  80  18  252  171  186  235  40  181  118  216  184  201  61  98  111  200  230  238  77  42  160  185  10  26  112  144  135  187  2  207  140  183  58  99  236  104  230  159  190  73  227  3  194  150  144  48  33  144  246  151  164  10  8  195  63  127  138  88  47  73  211  82  87  43  31  98  92  189  150  196  32  15  31  60  119  52  21  132  192  62  142  230  219  148  78  67  43  144  206  104  226  185  165  33  131  220  130  35  164  247  95  139  60  202  254  101  126  161  223  114  9  222  191  5  125  152  98  205  226  184  233  2  31  196  48  104  171  175  188  105  15  239  130  125  61  66  131  5  196  122  135  176  230  7  104  153  46  195  86  64  160  21  53  156  219  88  179  165  138  10  247  201  59  54  235  242  113  46  233  249  233  180  60  146  106  87  75  4  44  226  129  82  205  135  228  183  14  114  34  209  20  117  101  21  181  121  118  180  108  108  242  106  239  153  23  70  1  54  108  236  13  109  228  93  70  2  102  241  128  53  159  176  205  121  193  247  219  42  111  239  117  108  105  255  42  252  173  81  236  216  170  252  189  77  199  108  226  32  23  90  218  66  38  118  97  194  4  222  247  109  86  93  38  227  243  86  108  178  224  77  246  120  149  236  189  231  161  132  57  237  40  8  244  80  132  159  117  124  95  27  160  57  222  180  87  184  26  180  114  74  241  224  102  221  144  194  158  97  54  52  170  248  202  236  95  7  132  15  195  248  121  74  83  199  54  78  62  56  143  249  152  8  213  254  59  24  35  89  197  46  250  96  161  167  150  230  56  18  103  104  107  136  231  245  89  51  130  26  220  133  189  216  193  26  197  98  159  132  158  34  100  209  183  74  28  196  57  22  53  128  147  171  142  160  228  119  223  109  167  197  161  69  144  72  135  17  15  76  158  8  233  44  187  237  106  229  116  77  97  119  242  84  133  22  34  57  81  35  86  90  68  39  81  148  127  58  172  155  46  123  29  150  168  102  148  134  104  90  96  136  224  173  129  98  6  58  6  111  233  164  19  63  251  239  40  50  213  140  197  120  19  106  13  235  143  34  6  139  191  218  65  77  29  29  53  103  153  92  94  96  192  165  43  106  241  146  73  246  63  62  42  182  193  208  231  143  255  220  108  162  218  167  159  155  188  62  183  96  49  15  35  79  250  181  147  24  143  115  88  125  145  229  35  38  23  85  93  25  223  61  171  44  98  98  248  105  135  50  74  32  33  20  254  4  200  105  125  161  135  82  108  24  214  97  88  24  234  150  83  168  183  96  171  142  98  147  195  178  154  150  101  47  81  113  91  106  161  192  245  218  19  247  45  1  150  210  124  78  79  90  19  171  11  85  21  188  165  126  180  200  204  150  119  219  172  207  194  112  186  205  195  198  121  31  61  200  98  200  65  57  52  22  199  220  241  229  85  253  93  38  70  229  91  70  252  147  213  26  107  43  196  146  135  117  208  169  225  2  158  189  128  111  48  161  44  130  243  153  215  247  2  157  125  248  211  49  199  131  26  87  20  54  228  45  22  51  251  255  226  62  139  196  171  99  147  55  136  242  34  251  131  245  119  148  243  185  60  48  147  101  165  198  28  79  240  55  27  237  243  199  183  49  145  129  121  95  188  177  228  77  114  28  125  114  107  31  23  246  131  126  209  159  237  57  209  59  227  105  244  219  69  203  234  39  203  90  214  187  169  3  126  132  89  87  35  219  248  201  183  38  34  12  181  153  107  182  14  230  159  130  207  103  212  40  191  181  207  239  19  84  202  251  129  147  161  87  76  160  139  221  197  57  13  19  132  86  138  78  13  190  227  107  10  84  222  184  24  168  186  203  79  73  17  53  251  7  139  91  196  118  3  240  95  164  220  239  36  75  218  61  127  92  132  153  208  43  59  194  160  53  119  91  41  236  73  97  21  186  34  184  14  223  21  179  19  183  51  41  234  119  131  66  224  93  234  178  250  221  228  225  43  105  79  31  174  0  165  185  134  213  217  161  94  247  233  249  102  42  111  214  166  191  247  66  17  134  203  117  39  177  173  53  96  220  174  33  134  49  143  191  77  16  102  38  218  121  6  7  157  239  142  35  244  131  226  28  43  34  34  216  36  103  83  204  161  157  48  168  99  199  196  59  163  50  216  126  23  7  105  33  190  65  93  45  200  116  96  204  151  164  106  114  128  166  177  79  44  101  233  45  177  166  156  114  53  210  246  136  218  179  241  82  218  242  220  23  63  178  109  197  97  134  29  27  112  158  78  241  135  8  243  142  128  127  161  170  152  86  216  144  17  199  250  125  147  2  238  87  170  33  150  139  213  107  101  211  238  245  23  152  32  34  51  132  181  76  98  223  0  52  189  81  22  208  69  165  225  103  64  85  221  0  238  147  79  126  32  228  20  237  102  72  57  10  106  86  122  10  131  196  55  116  45  62  43  224  21  127  23  37  117  52  194  196  65  92  82  16  19  73  187  207  67  214  13  2  120  204  233  171  17  253  209  107  76  3  57  28  149  55  47  151  144  240  32  47  128  206  227  125  106  81  90  141  228  203  50  165  235  104  249  87  18  156  166  194  120  74  206  130  121  128  73  5  157  172  172  168  124  213  23  74  108  128  38  178  115  153  69  154  200  212  180  219  91  220  131  177  36  189  91  242  225  228  118  113  155  71  90  212  209  58  244  131  124  185  109  133  14  1  205  132  150  155  155  104  158  32  39  130  238  78  178  117  122  71  188  170  170  52  233  108  29  200  125  95  76  159  54  115  8  193  96  48  165  26  91  137  190  45  114  81  255  187  199  197  223  190  94  152  112  138  176  91  109  158  14  31  96  58  30  184  112  131  15  7  158  184  187  90  100  166  224  11  160  79  169  26  63  145  97  209  200  90  174  13  248  210  241  44  191  217  120  69  206  5  4  189  70  87  199  2  205  202  62  174  23  232  197  42  62  144  81  101  169  67  217  18  6  75  51  122  244  59  170  235  39  136  113  69  145  8  63  107  221  111  162  203  194  60  99  121  21  152  75  242  80  72  169  236  45  221  190  40  70  238  204  192  65  125  175  251  227  2  73  58  115  63  156  72  110  92  99  219  245  102  65  242  175  226  234  47  187  166  170  95  47  248  133  203  35  109  168  27  160  213  91  6  252  51  178  89  244  122  59  66  172  158  126  75  15  82  199  214  109  169  214  115  30  183  45  235  217  41  124  106  247  221  105  211  66  80  20  200  21  235  56  195  133  25  112  32  4  61  29  219  96  175  193  66  106  8  36  251  118  54  105  45  233  247  88  200  128  165  145  114  141  110  250  221  106  114  174  228  143  120  2  16  67  89  153  215  142  171  121  65  83  121  239  86  146  120  167  40  182  131  208  7  117  172  50  4  70  210  60  164  141  32  153  54  200  137  153  72  166  230  192  18  150  32  55  245  185  92  97  137  54  254  196  10  219  0  162  106  169  250  16  156  95  240  33  88  90  244  155  214  40  107  55  188  242  213  185  229  149  191  73  79  125  166  99  20  153  123  89  3  169  147  223  7  214  209  60  97  11  3  238  79  219  121  31  174  169  34  37  195  219  142  72  99  65  133  156  80  116  39  53  209  6  184  28  45  91  178  135  244  201  239  110  174  21  69  96  222  207  38  131  25  5  124  30  42  196  90  141  62  115  139  156  105  136  195  65  181  93  152  96  135  206  30  219  248  53  155  96  116  203  120  162  206  222  58  77  189  102  22  252  181  121  112  126  193  166  88  86  54  245  249  248  182  85  187  107  98  92  194  40  179  28  91  180  219  75  227  73  101  121  152  8  28  35  229  147  50  101  178  183  3  216  72  163  226  139  151  167  172  103  161  191  29  87  40  63  52  88  187  231  79  81  169  36  245  222  132  216  194  126  48  24  65  123  209  97  3  192  67  121  197  43  38  198  223  109  247  58  2  127  24  10  134  150  57  76  148  68  245  78  175  186  32  207  52  129  198  178  198  219  109  138  167  236  230  93  121  45  143  121  8  53  160  143  44  219  219  121  34  181  179  246  52  156  206  87  207  97  155  161  224  12  124  211  124  27  2  58  164  2  145  81  92  177  184  129  240  105  130  90  225  48  16  21  147  60  204  26  133  87  148  16  170  188  108  117  252  80  78  12  125  253  228  127  84  251  55  130  203  87  121  73  167  113  122  172  92  111  128  112  90  135  153  78  245  195  234  210  12  127  178  23  234  13  99  77  181  50  95  124  240  219  166  130  162  72  254  56  248  37  242  239  51  108  82  220  42  217  177  222  161  122  210  19  70  141  196  250  39  21  15  142  13  216  1  152  84  52  12  180  109  13  214  234  100  129  114  129  151  68  39  183  221  165  237  73  70  250  205  96  224  213  53  60  190  184  83  45  217  62  127  210  105  122  218  57  131  44  80  152  20  210  54  127  116  244  6  246  36  1  183  216  154  22  134  217  70  119  50  230  99  19  219  123  138  127  50  65  121  228  187  157  209  5  109  111  71  35  71  225  3  184  224  100  191  64  112  59  138  250  57  162  251  93  214  145  231  87  97  56  204  161  13  249  114  135  87  42  71  49  163  64  159  38  184  16  217  6  79  165  70  157  141  244  130  94  27  230  213  3  74  175  57  133  128  20  105  222  28  92  150  27  189 